<svg width="25" height="24" viewBox="0 0 25 24" fill="none" xmlns="http://www.w3.org/2000/svg">
<path fill-rule="evenodd" clip-rule="evenodd" d="M7.48794 1.24818C5.97393 1.24818 4.74658 2.47553 4.74658 3.98954L4.74658 10V10.9205C4.74658 12.4749 5.56213 13.9153 6.895 14.7151L8.53671 15.7001C9.2221 16.1113 9.58626 16.8999 9.45486 17.6883L9.25001 18.9174C8.91544 20.9248 10.4635 22.7523 12.4986 22.7523C14.5338 22.7523 16.0818 20.9248 15.7472 18.9174L15.5424 17.6883C15.411 16.8999 15.7751 16.1113 16.4605 15.7001L18.1022 14.7151C19.4351 13.9153 20.2507 12.4749 20.2507 10.9205L20.2507 10L20.2507 3.98954C20.2507 2.47552 19.0233 1.24818 17.5093 1.24818L13.499 1.24818L9.49828 1.24818L7.48794 1.24818ZM18.7466 9.24801V3.98954C18.7466 3.3062 18.1926 2.75225 17.5093 2.75225L14.251 2.75225V4.00021C14.251 4.41555 13.9143 4.75225 13.499 4.75225C13.0836 4.75225 12.7469 4.41555 12.7469 4.00021V2.75225H10.2503V6.00021C10.2503 6.41555 9.91362 6.75225 9.49828 6.75225C9.08294 6.75225 8.74624 6.41555 8.74624 6.00021V2.75225L7.48794 2.75225C6.80461 2.75225 6.25066 3.3062 6.25066 3.98954L6.25066 9.24801L18.7466 9.24801ZM6.25066 10.7521L18.7466 10.7521V10.9205C18.7466 11.9466 18.2082 12.8974 17.3284 13.4253L15.6867 14.4104C14.4715 15.1395 13.8258 16.5377 14.0588 17.9356L14.2636 19.1647C14.4454 20.2553 13.6043 21.2482 12.4986 21.2482C11.3929 21.2482 10.5518 20.2553 10.7336 19.1647L10.9385 17.9356C11.1715 16.5377 10.5258 15.1395 9.31055 14.4104L7.66884 13.4253C6.78901 12.8974 6.25066 11.9466 6.25066 10.9205V10.7521Z" fill="#E551B3"/>
</svg>
