<svg width="44" height="43" viewBox="0 0 44 43" fill="none" xmlns="http://www.w3.org/2000/svg">
<g filter="url(#filter0_d_414_2537)">
<path d="M30.8156 16.9631C30.664 17.6504 30.4745 18.2612 30.1713 18.8721C30.1334 18.9867 30.0577 19.1394 29.9819 19.2539C29.7545 19.7121 29.4893 20.1702 29.1861 20.552C29.0725 20.7047 28.9588 20.8573 28.8072 21.01C28.0493 21.8882 27.102 22.6519 26.0788 23.1864C25.8894 23.3009 25.6999 23.3774 25.4725 23.4537C25.1314 23.6064 24.7904 23.7209 24.4494 23.7973C23.0852 24.1791 21.6452 24.2554 20.1673 23.95C15.2789 22.9191 12.1717 18.1084 13.1948 13.2214C14.2179 8.29613 18.9926 5.16541 23.843 6.19627C25.5483 6.53989 27.1398 7.41803 28.3903 8.67797C30.5124 10.8542 31.4219 13.9851 30.8156 16.9631Z" fill="url(#paint0_linear_414_2537)"/>
<path d="M22.0999 22.7275C21.5694 22.7275 21.0767 22.6893 20.5462 22.5748C16.4536 21.6967 13.801 17.6497 14.6347 13.5262C15.0515 11.5409 16.2263 9.78453 17.8936 8.67731C19.5988 7.57009 21.6073 7.15015 23.6157 7.57013C25.0556 7.87557 26.3819 8.60099 27.4429 9.67003C29.2618 11.5027 30.0576 14.0988 29.5271 16.6569C29.4134 17.2296 29.224 17.7642 28.9966 18.2988C28.9587 18.4133 28.9208 18.5278 28.845 18.6041C28.6555 18.9859 28.4282 19.3677 28.163 19.7113C28.0493 19.864 27.9735 19.9786 27.8598 20.0931C27.2156 20.8567 26.4198 21.4677 25.5482 21.9259C25.3966 22.0022 25.2071 22.0784 25.0556 22.1548C24.7145 22.3075 24.4493 22.384 24.1841 22.4603C23.502 22.6131 22.782 22.7275 22.0999 22.7275ZM22.062 8.06639C20.7357 8.06639 19.4094 8.44819 18.2725 9.21179C16.7189 10.2427 15.6579 11.8081 15.2789 13.6407C14.4832 17.4205 16.9084 21.124 20.6599 21.8876C21.7588 22.1167 22.8956 22.0784 23.9567 21.773C24.2219 21.6966 24.4493 21.6204 24.7525 21.5058C24.9041 21.4295 25.0556 21.3531 25.2072 21.2767C26.003 20.8567 26.7229 20.3223 27.3292 19.6351C27.4429 19.5205 27.5187 19.406 27.6324 19.2533C27.8598 18.9478 28.0872 18.6042 28.2387 18.2605C28.2766 18.146 28.3145 18.0696 28.3524 17.9932C28.5798 17.4969 28.7313 17.0006 28.845 16.5042C29.3376 14.1752 28.6176 11.808 26.9503 10.1663C26.0029 9.21179 24.7903 8.56273 23.464 8.25729C23.0093 8.10457 22.5546 8.06639 22.062 8.06639Z" fill="#F9B400"/>
<path d="M30.0145 19.1353C29.7871 19.5552 29.5597 19.9752 29.2566 20.357C29.1429 20.5097 29.0292 20.6625 28.8776 20.8152C28.1198 21.6933 27.324 22.4951 26.2629 23.0296C26.0735 23.1442 25.884 23.2205 25.6945 23.3351C25.3535 23.4878 25.3156 23.5641 24.9745 23.6405L19.2075 18.6091L20.4684 17.3482L20.8564 16.1842L18.7192 14.3246C18.7192 14.3246 21.1824 14.0679 21.1066 13.9534C21.0687 13.9152 21.1066 12.5955 21.1066 12.5955L22.0188 11.8047L21.8264 10.5586L24.7362 13.3714L26.0941 13.6624L30.5071 18.1426C30.4692 18.2571 30.0903 19.0207 30.0145 19.1353Z" fill="url(#paint1_linear_414_2537)"/>
</g>
<path d="M21.6229 10.8464C21.7092 10.6829 21.9434 10.6829 22.0297 10.8464L23.1669 13.0018C23.2002 13.0649 23.2608 13.109 23.3311 13.1211L25.7324 13.5366C25.9146 13.5681 25.987 13.7909 25.8581 13.9235L24.1596 15.6711C24.1099 15.7222 24.0867 15.7935 24.0969 15.8641L24.4438 18.2763C24.4701 18.4593 24.2806 18.597 24.1147 18.5154L21.9278 17.4401C21.8638 17.4086 21.7888 17.4086 21.7248 17.4401L19.5379 18.5154C19.372 18.597 19.1825 18.4593 19.2088 18.2763L19.5557 15.8641C19.5658 15.7935 19.5427 15.7222 19.493 15.6711L17.7945 13.9235C17.6656 13.7909 17.738 13.5681 17.9202 13.5366L20.3215 13.1211C20.3918 13.109 20.4524 13.0649 20.4857 13.0018L21.6229 10.8464Z" fill="url(#paint2_linear_414_2537)"/>
<defs>
<filter id="filter0_d_414_2537" x="0.863754" y="0.195709" width="42.2725" height="42.4112" filterUnits="userSpaceOnUse" color-interpolation-filters="sRGB">
<feFlood flood-opacity="0" result="BackgroundImageFix"/>
<feColorMatrix in="SourceAlpha" type="matrix" values="0 0 0 0 0 0 0 0 0 0 0 0 0 0 0 0 0 0 127 0" result="hardAlpha"/>
<feOffset dy="6.33195"/>
<feGaussianBlur stdDeviation="6.06812"/>
<feColorMatrix type="matrix" values="0 0 0 0 0.791667 0 0 0 0 0.563229 0 0 0 0 0.199236 0 0 0 0.25 0"/>
<feBlend mode="normal" in2="BackgroundImageFix" result="effect1_dropShadow_414_2537"/>
<feBlend mode="normal" in="SourceGraphic" in2="effect1_dropShadow_414_2537" result="shape"/>
</filter>
<linearGradient id="paint0_linear_414_2537" x1="12.9773" y1="15.1173" x2="30.9992" y2="15.1173" gradientUnits="userSpaceOnUse">
<stop offset="0.00289017" stop-color="#FFD44F"/>
<stop offset="1" stop-color="#FFA607"/>
</linearGradient>
<linearGradient id="paint1_linear_414_2537" x1="22.2377" y1="15.346" x2="26.1443" y2="19.2234" gradientUnits="userSpaceOnUse">
<stop stop-color="#FAA404"/>
<stop offset="1" stop-color="#FF7904" stop-opacity="0"/>
</linearGradient>
<linearGradient id="paint2_linear_414_2537" x1="24.5421" y1="18.3174" x2="22.2312" y2="10.9575" gradientUnits="userSpaceOnUse">
<stop stop-color="#FFE491"/>
<stop offset="1" stop-color="white"/>
</linearGradient>
</defs>
</svg>
