<svg width="24" height="25" viewBox="0 0 24 25" fill="none" xmlns="http://www.w3.org/2000/svg">
<path fill-rule="evenodd" clip-rule="evenodd" d="M11.7507 5.50586C7.75057 5.50586 4.50781 8.74861 4.50781 12.7488C4.50781 13.4892 4.66453 14.2505 4.89155 14.9601L4.89576 14.9732L4.89577 14.9732L4.89578 14.9733C5.14158 15.7415 5.33131 16.3344 5.4611 16.7855C5.5864 17.2209 5.6788 17.5978 5.69111 17.9024C5.70091 18.1451 5.7038 18.355 5.67284 18.5761C5.64188 18.7971 5.58141 18.9982 5.50533 19.2288C5.4278 19.4637 5.30437 19.7099 5.13743 19.9916H11.7507C15.7508 19.9916 18.9936 16.7489 18.9936 12.7488C18.9936 8.74861 15.7508 5.50586 11.7507 5.50586ZM3.13945 20.3171C3.05642 20.4378 3.00781 20.5841 3.00781 20.7416C3.00781 21.1559 3.3436 21.4916 3.75781 21.4916H11.7507C16.5793 21.4916 20.4936 17.5773 20.4936 12.7488C20.4936 7.92019 16.5793 4.00586 11.7507 4.00586C6.92214 4.00586 3.00781 7.92019 3.00781 12.7488C3.00781 13.6908 3.20525 14.6119 3.4629 15.4172C3.71377 16.2012 3.89666 16.7731 4.01959 17.2003C4.14776 17.6457 4.18823 17.8615 4.19233 17.963C4.2016 18.1926 4.19844 18.2887 4.18734 18.368C4.17624 18.4472 4.15285 18.5406 4.08086 18.7588C3.99415 19.0216 3.77252 19.3674 3.13945 20.3171ZM7.44786 10.9724C7.44786 10.5582 7.78365 10.2224 8.19786 10.2224H15.3027C15.7169 10.2224 16.0527 10.5582 16.0527 10.9724C16.0527 11.3866 15.7169 11.7224 15.3027 11.7224H8.19786C7.78365 11.7224 7.44786 11.3866 7.44786 10.9724ZM8.19786 13.775C7.78365 13.775 7.44786 14.1107 7.44786 14.525C7.44786 14.9392 7.78365 15.275 8.19786 15.275H11.7503C12.1645 15.275 12.5003 14.9392 12.5003 14.525C12.5003 14.1107 12.1645 13.775 11.7503 13.775H8.19786Z" fill="#455564"/>
</svg>
