<svg width="24" height="24" viewBox="0 0 24 24" fill="none" xmlns="http://www.w3.org/2000/svg">
<path d="M19.499 2.99951H17.249V2.24951C17.249 2.0506 17.17 1.85983 17.0294 1.71918C16.8887 1.57853 16.6979 1.49951 16.499 1.49951C16.3001 1.49951 16.1093 1.57853 15.9687 1.71918C15.828 1.85983 15.749 2.0506 15.749 2.24951V2.99951H8.24902V2.24951C8.24902 2.0506 8.17001 1.85983 8.02935 1.71918C7.8887 1.57853 7.69794 1.49951 7.49902 1.49951C7.30011 1.49951 7.10935 1.57853 6.96869 1.71918C6.82804 1.85983 6.74902 2.0506 6.74902 2.24951V2.99951H4.49902C4.10132 2.9999 3.72002 3.15807 3.4388 3.43929C3.15758 3.7205 2.99942 4.10181 2.99902 4.49951V19.4995C2.99942 19.8972 3.15758 20.2785 3.4388 20.5597C3.72002 20.841 4.10132 20.9991 4.49902 20.9995H19.499C19.8967 20.9991 20.278 20.841 20.5592 20.5597C20.8405 20.2785 20.9986 19.8972 20.999 19.4995V4.49951C20.9986 4.10181 20.8405 3.7205 20.5592 3.43929C20.278 3.15807 19.8967 2.9999 19.499 2.99951ZM9.74957 17.6245C9.4542 17.6253 9.16161 17.5676 8.88869 17.4546C8.61577 17.3417 8.36795 17.1757 8.15953 16.9664C8.0188 16.8259 7.93967 16.6351 7.93955 16.4362C7.93944 16.2373 8.01834 16.0465 8.15891 15.9058C8.29948 15.765 8.4902 15.6859 8.68912 15.6858C8.88803 15.6857 9.07884 15.7646 9.21957 15.9052C9.30683 15.9923 9.41422 16.0566 9.53225 16.0923C9.65027 16.1281 9.77529 16.1341 9.89623 16.11C10.0172 16.0859 10.1303 16.0323 10.2256 15.9541C10.3209 15.8758 10.3954 15.7752 10.4426 15.6613C10.4897 15.5474 10.5081 15.4235 10.4959 15.3008C10.4838 15.1781 10.4416 15.0603 10.3731 14.9577C10.3046 14.8552 10.2118 14.7712 10.1031 14.713C9.99431 14.6549 9.87289 14.6245 9.74957 14.6245H9.74911C9.72577 14.6245 9.70242 14.6231 9.67912 14.6209C9.67166 14.6203 9.66438 14.6191 9.65701 14.6182C9.6414 14.6163 9.62584 14.614 9.61033 14.6111C9.60167 14.6095 9.59311 14.6076 9.58455 14.6057C9.57045 14.6025 9.5564 14.5989 9.54244 14.5949C9.53392 14.5924 9.52541 14.59 9.51703 14.5873C9.50293 14.5827 9.48897 14.5774 9.4751 14.572C9.46755 14.569 9.4599 14.5663 9.45249 14.5631C9.43633 14.5561 9.42044 14.5482 9.40461 14.54C9.40003 14.5376 9.39522 14.5356 9.39069 14.5331C9.37091 14.5223 9.35151 14.5105 9.33246 14.4978C9.32605 14.4935 9.3201 14.4886 9.31383 14.4841C9.30284 14.4763 9.29172 14.4687 9.28106 14.4602C9.27968 14.4591 9.27849 14.4578 9.27712 14.4567C9.26581 14.4475 9.25519 14.4376 9.24443 14.4277C9.23661 14.4206 9.22837 14.4137 9.2209 14.4063C9.21367 14.3991 9.20712 14.3913 9.20017 14.3838C9.10941 14.2859 9.0463 14.1656 9.01729 14.0353C9.01679 14.0329 9.01596 14.0306 9.01546 14.0282C9.01285 14.0156 9.01129 14.0026 9.00932 13.9897C9.00754 13.9781 9.00525 13.9665 9.00401 13.9548C9.00296 13.9452 9.00282 13.9353 9.00214 13.9256C9.00109 13.9102 8.99994 13.8949 8.99985 13.8795C8.9998 13.8778 8.99957 13.8762 8.99957 13.8745C8.99957 13.8667 9.00049 13.8592 9.00076 13.8514C9.00122 13.8359 9.00168 13.8204 9.0031 13.8049C9.00406 13.7944 9.00571 13.7841 9.00713 13.7738C9.009 13.7598 9.01084 13.7459 9.01349 13.732C9.01565 13.7209 9.01843 13.71 9.02104 13.6991C9.02411 13.6863 9.02713 13.6735 9.03089 13.6608C9.03428 13.6495 9.03826 13.6384 9.04215 13.6273C9.04631 13.6154 9.05039 13.6035 9.05515 13.5918C9.05982 13.5803 9.06513 13.5692 9.07035 13.558C9.07547 13.5471 9.08042 13.5361 9.0861 13.5254C9.09223 13.5137 9.0991 13.5024 9.10583 13.4911C9.11164 13.4814 9.11722 13.4716 9.1235 13.462C9.13147 13.45 9.14011 13.4386 9.14872 13.427C9.15393 13.4201 9.15842 13.4128 9.16391 13.4059L9.6891 12.7495H8.62457C8.42566 12.7495 8.23489 12.6705 8.09424 12.5298C7.95359 12.3892 7.87457 12.1984 7.87457 11.9995C7.87457 11.8006 7.95359 11.6098 8.09424 11.4692C8.23489 11.3285 8.42566 11.2495 8.62457 11.2495H11.2496C11.3909 11.2495 11.5293 11.2894 11.6489 11.3646C11.7684 11.4398 11.8644 11.5473 11.9256 11.6746C11.9868 11.802 12.0108 11.944 11.9948 12.0844C11.9788 12.2247 11.9235 12.3578 11.8352 12.4681L11.0038 13.5074C11.4042 13.7762 11.7076 14.1665 11.8693 14.6208C12.031 15.0751 12.0425 15.5693 11.902 16.0306C11.7614 16.4919 11.4764 16.8958 11.0888 17.1828C10.7013 17.4698 10.2318 17.6246 9.74957 17.6245ZM15.7496 16.8745C15.7496 17.0734 15.6706 17.2642 15.5299 17.4048C15.3892 17.5455 15.1985 17.6245 14.9996 17.6245C14.8007 17.6245 14.6099 17.5455 14.4692 17.4048C14.3286 17.2642 14.2496 17.0734 14.2496 16.8745V13.4995L13.9496 13.7245C13.7904 13.8439 13.5904 13.8951 13.3935 13.867C13.1966 13.8388 13.0189 13.7336 12.8995 13.5745C12.7802 13.4154 12.729 13.2153 12.7571 13.0184C12.7852 12.8215 12.8905 12.6438 13.0496 12.5245L14.5496 11.3995C14.661 11.3159 14.7935 11.265 14.9322 11.2525C15.071 11.24 15.2104 11.2664 15.335 11.3287C15.4596 11.391 15.5643 11.4868 15.6376 11.6052C15.7108 11.7237 15.7496 11.8602 15.7496 11.9995V16.8745ZM19.499 7.49951H4.49902V4.49951H6.74902V5.24951C6.74902 5.44842 6.82804 5.63919 6.96869 5.77984C7.10935 5.92049 7.30011 5.99951 7.49902 5.99951C7.69794 5.99951 7.8887 5.92049 8.02935 5.77984C8.17001 5.63919 8.24902 5.44842 8.24902 5.24951V4.49951H15.749V5.24951C15.749 5.44842 15.828 5.63919 15.9687 5.77984C16.1093 5.92049 16.3001 5.99951 16.499 5.99951C16.6979 5.99951 16.8887 5.92049 17.0294 5.77984C17.17 5.63919 17.249 5.44842 17.249 5.24951V4.49951H19.499V7.49951Z" fill="white"/>
</svg>
