<svg width="24" height="24" viewBox="0 0 24 24" fill="none" xmlns="http://www.w3.org/2000/svg">
<path d="M4.7265 3.16833C4.58239 3.03123 4.49864 2.84251 4.49368 2.64367C4.48872 2.44483 4.56295 2.25216 4.70004 2.10805C4.83713 1.96394 5.02586 1.8802 5.2247 1.87523C5.42354 1.87027 5.61621 1.9445 5.76031 2.08159L7.51007 3.74612C8.80428 2.77588 10.3779 2.25096 11.9955 2.24996C13.613 2.24896 15.1873 2.77194 16.4827 3.74058L18.2265 2.08159C18.2979 2.01371 18.3819 1.96055 18.4738 1.92514C18.5657 1.88974 18.6637 1.87278 18.7621 1.87523C18.8606 1.87769 18.9576 1.89952 19.0476 1.93946C19.1376 1.97941 19.2189 2.0367 19.2868 2.10805C19.3547 2.17941 19.4078 2.26344 19.4432 2.35534C19.4786 2.44724 19.4956 2.54521 19.4931 2.64367C19.4907 2.74212 19.4689 2.83913 19.4289 2.92915C19.389 3.01917 19.3317 3.10044 19.2603 3.16833L17.5903 4.75709C18.6486 5.937 19.3042 7.4229 19.4624 8.99996H4.53758C4.69551 7.42599 5.34894 5.94276 6.40375 4.76391L4.7265 3.16833ZM3 8.99996C2.80109 8.99996 2.61032 9.07898 2.46967 9.21963C2.32902 9.36028 2.25 9.55105 2.25 9.74996C2.25 9.94887 2.32902 10.1396 2.46967 10.2803C2.61032 10.4209 2.80109 10.5 3 10.5H4.5V8.99996H3ZM19.5 14.25C19.5 14.5031 19.487 14.7532 19.4624 15H21C21.1989 15 21.3897 15.079 21.5303 15.2196C21.671 15.3603 21.75 15.551 21.75 15.75C21.75 15.9489 21.671 16.1396 21.5303 16.2803C21.3897 16.4209 21.1989 16.5 21 16.5H19.1547C18.6759 18.0224 17.7239 19.3525 16.4371 20.2967C15.1504 21.2408 13.596 21.75 12 21.75C10.404 21.75 8.84961 21.2408 7.56286 20.2967C6.27612 19.3525 5.32411 18.0224 4.84527 16.5H3C2.80109 16.5 2.61032 16.4209 2.46967 16.2803C2.32902 16.1396 2.25 15.9489 2.25 15.75C2.25 15.551 2.32902 15.3603 2.46967 15.2196C2.61032 15.079 2.80109 15 3 15H4.53758C4.51298 14.7532 4.5 14.5031 4.5 14.25V13.5H3C2.80109 13.5 2.61032 13.4209 2.46967 13.2803C2.32902 13.1396 2.25 12.9489 2.25 12.75C2.25 12.551 2.32902 12.3603 2.46967 12.2196C2.61032 12.079 2.80109 12 3 12H4.5V10.5H19.5V12H21C21.1989 12 21.3897 12.079 21.5303 12.2196C21.671 12.3603 21.75 12.551 21.75 12.75C21.75 12.9489 21.671 13.1396 21.5303 13.2803C21.3897 13.4209 21.1989 13.5 21 13.5H19.5V14.25ZM12.75 12.75C12.75 12.551 12.671 12.3603 12.5303 12.2196C12.3897 12.079 12.1989 12 12 12C11.8011 12 11.6103 12.079 11.4697 12.2196C11.329 12.3603 11.25 12.551 11.25 12.75V18.75C11.25 18.9489 11.329 19.1396 11.4697 19.2803C11.6103 19.4209 11.8011 19.5 12 19.5C12.1989 19.5 12.3897 19.4209 12.5303 19.2803C12.671 19.1396 12.75 18.9489 12.75 18.75V12.75ZM21.75 9.74996C21.75 9.55105 21.671 9.36029 21.5303 9.21964C21.3897 9.07899 21.1989 8.99997 21 8.99996H19.5V10.5H21C21.1989 10.5 21.3897 10.4209 21.5303 10.2803C21.671 10.1396 21.75 9.94887 21.75 9.74996Z" fill="white"/>
</svg>
