<svg width="24" height="24" viewBox="0 0 24 24" fill="none" xmlns="http://www.w3.org/2000/svg">
<path d="M23.1853 11.6961C23.1524 11.6221 22.3585 9.86087 20.5928 8.09509C18.2412 5.74319 15.2698 4.5 12 4.5C8.73017 4.5 5.75874 5.74319 3.40711 8.09509C1.64142 9.86087 0.847573 11.6221 0.814613 11.6961C0.772012 11.792 0.75 11.8958 0.75 12.0007C0.75 12.1057 0.772012 12.2094 0.814613 12.3053C0.847573 12.3795 1.64152 14.1402 3.4072 15.9057C5.75883 18.2571 8.73017 19.5 12 19.5C15.2698 19.5 18.2411 18.2571 20.5928 15.9057C22.3584 14.1402 23.1524 12.3795 23.1853 12.3053C23.2279 12.2094 23.25 12.1057 23.25 12.0007C23.25 11.8958 23.2279 11.792 23.1853 11.6961ZM12 8.62582C12.6675 8.62582 13.32 8.82376 13.875 9.19461C14.43 9.56546 14.8626 10.0926 15.1181 10.7093C15.3735 11.326 15.4404 12.0046 15.3101 12.6593C15.1799 13.3139 14.8585 13.9153 14.3865 14.3873C13.9145 14.8593 13.3131 15.1807 12.6584 15.311C12.0037 15.4412 11.3251 15.3744 10.7084 15.1189C10.0917 14.8635 9.56462 14.4309 9.19377 13.8759C8.82292 13.3209 8.62498 12.6683 8.62498 12.0008C8.62599 11.106 8.98189 10.2482 9.61461 9.61545C10.2473 8.98273 11.1052 8.62683 12 8.62582Z" fill="white"/>
</svg>
