<svg width="20" height="20" viewBox="0 0 20 20" fill="none" xmlns="http://www.w3.org/2000/svg">
<path d="M18.6143 8.46644C18.582 8.28332 18.5091 8.10976 18.401 7.95846C18.2929 7.80716 18.1523 7.68195 17.9896 7.59199L16.3862 6.70191C16.2835 6.50267 16.1711 6.3077 16.0503 6.11903L16.0811 4.28374C16.0848 4.09803 16.0468 3.91387 15.97 3.74476C15.8931 3.57564 15.7795 3.42587 15.6372 3.30641C14.8485 2.6421 13.9481 2.12307 12.978 1.77347C12.8032 1.70992 12.6165 1.68625 12.4314 1.70421C12.2463 1.72217 12.0675 1.7813 11.9082 1.87727L10.3357 2.82084C10.1117 2.8102 9.8866 2.80997 9.66298 2.8203L8.08904 1.87594C7.93003 1.77991 7.75153 1.7207 7.56665 1.70266C7.38177 1.68462 7.1952 1.7082 7.02062 1.77168C6.05094 2.12259 5.15125 2.64285 4.36342 3.30824C4.22101 3.42781 4.10714 3.57772 4.03016 3.74699C3.95318 3.91626 3.91503 4.1006 3.91851 4.28652L3.94933 6.12013C3.82814 6.30881 3.71545 6.50363 3.61249 6.70252L2.00773 7.59333C1.84476 7.68346 1.70403 7.80892 1.59588 7.96053C1.48772 8.11213 1.41488 8.28603 1.38269 8.46945C1.20229 9.48377 1.20318 10.522 1.38532 11.536C1.41767 11.7192 1.49056 11.8927 1.59865 12.044C1.70675 12.1953 1.84732 12.3205 2.01006 12.4105L3.61345 13.3006C3.71618 13.4998 3.82856 13.6948 3.94937 13.8835L3.91851 15.7188C3.91489 15.9045 3.95288 16.0886 4.02969 16.2577C4.10651 16.4268 4.2202 16.5766 4.36243 16.6961C5.15114 17.3604 6.05152 17.8794 7.02165 18.229C7.19641 18.2926 7.38319 18.3163 7.56829 18.2983C7.75338 18.2803 7.93212 18.2212 8.09141 18.1252L9.6639 17.1816C9.88798 17.1923 10.113 17.1925 10.3367 17.1822L11.9106 18.1265C12.0696 18.2226 12.2481 18.2818 12.433 18.2998C12.6179 18.3178 12.8044 18.2943 12.979 18.2308C13.9487 17.8799 14.8484 17.3596 15.6362 16.6942C15.7786 16.5747 15.8925 16.4248 15.9695 16.2555C16.0465 16.0862 16.0846 15.9019 16.0811 15.716L16.0503 13.8823C16.1715 13.6937 16.2842 13.4989 16.3872 13.3L17.9919 12.4092C18.1549 12.319 18.2956 12.1935 18.4038 12.0419C18.5119 11.8903 18.5848 11.7165 18.617 11.533C18.7974 10.5187 18.7965 9.48044 18.6143 8.46644ZM13.437 10.0012C13.437 10.6811 13.2354 11.3457 12.8577 11.911C12.48 12.4763 11.9431 12.9169 11.315 13.1771C10.6869 13.4373 9.9957 13.5053 9.32889 13.3727C8.66208 13.2401 8.04958 12.9127 7.56884 12.4319C7.08809 11.9512 6.7607 11.3387 6.62807 10.6719C6.49543 10.0051 6.5635 9.31389 6.82368 8.68577C7.08386 8.05765 7.52445 7.52078 8.08974 7.14307C8.65504 6.76535 9.31964 6.56374 9.99952 6.56374C10.9109 6.56477 11.7846 6.92727 12.4291 7.5717C13.0735 8.21613 13.436 9.08988 13.437 10.0012Z" fill="white"/>
</svg>
