<svg width="20" height="20" viewBox="0 0 20 20" fill="none" xmlns="http://www.w3.org/2000/svg">
<path d="M10 17.5C14.1421 17.5 17.5 14.1421 17.5 10C17.5 5.85786 14.1421 2.5 10 2.5C5.85786 2.5 2.5 5.85786 2.5 10C2.5 14.1421 5.85786 17.5 10 17.5Z" stroke="#455564" stroke-linecap="round" stroke-linejoin="round"/>
<path d="M3.87402 14.3278L4.78635 13.777C4.878 13.7217 4.9539 13.6438 5.00678 13.5507C5.05966 13.4576 5.08774 13.3525 5.08834 13.2455L5.10419 10.4229C5.10485 10.3049 5.13886 10.1896 5.2023 10.0902L6.7525 7.66069C6.79832 7.58888 6.85833 7.5272 6.92886 7.47942C6.99938 7.43165 7.07893 7.3988 7.16261 7.38288C7.24629 7.36697 7.33234 7.36833 7.41548 7.38688C7.49862 7.40543 7.57709 7.44077 7.64607 7.49075L9.18168 8.6033C9.31174 8.69753 9.47309 8.73808 9.63224 8.71652L12.0917 8.38345C12.2425 8.36302 12.3807 8.28823 12.4804 8.17312L14.2114 6.17306C14.3165 6.05164 14.3708 5.89443 14.3631 5.73403L14.2718 3.83533H14.2114" stroke="#455564" stroke-linecap="round" stroke-linejoin="round"/>
<path d="M14.6146 15.9128L13.7761 15.0727C13.6977 14.9941 13.5998 14.9379 13.4924 14.9097L11.816 14.4697C11.6672 14.4307 11.538 14.3381 11.4532 14.2098C11.3684 14.0815 11.3339 13.9263 11.3563 13.7742L11.5426 12.5088C11.5583 12.402 11.6014 12.3011 11.6678 12.2159C11.7341 12.1307 11.8213 12.0642 11.921 12.0228L14.3 11.034C14.4099 10.9883 14.5305 10.9749 14.6477 10.9955C14.7649 11.016 14.8739 11.0696 14.9617 11.1499L16.9065 12.9286" stroke="#455564" stroke-linecap="round" stroke-linejoin="round"/>
</svg>
