<svg width="24" height="24" viewBox="0 0 24 24" fill="none" xmlns="http://www.w3.org/2000/svg">
<path d="M18.75 7.09155V3.75024C18.7495 3.35258 18.5913 2.97135 18.3101 2.69016C18.0289 2.40896 17.6477 2.25076 17.25 2.25024H6.75C6.35233 2.25076 5.9711 2.40896 5.68991 2.69016C5.40872 2.97135 5.25052 3.35258 5.25 3.75024V7.12524C5.2507 7.35801 5.30529 7.58745 5.40948 7.79559C5.51368 8.00373 5.66466 8.18492 5.85059 8.32495L10.7505 12.0002L5.84985 15.6755C5.66402 15.8156 5.51315 15.9968 5.40908 16.205C5.30501 16.4131 5.25056 16.6425 5.25 16.8752V20.2502C5.25052 20.6479 5.40872 21.0291 5.68991 21.3103C5.9711 21.5915 6.35233 21.7497 6.75 21.7502H17.25C17.6477 21.7497 18.0289 21.5915 18.3101 21.3103C18.5913 21.0291 18.7495 20.6479 18.75 20.2502V16.9089C18.7497 16.677 18.6957 16.4482 18.5923 16.2406C18.4889 16.033 18.3388 15.8521 18.1538 15.7122L13.2435 12.0002L18.1538 8.28833C18.3387 8.14826 18.4887 7.96737 18.5921 7.75977C18.6955 7.55217 18.7495 7.32348 18.75 7.09155Z" fill="white"/>
</svg>
