<svg width="24" height="24" viewBox="0 0 24 24" fill="none" xmlns="http://www.w3.org/2000/svg">
<path d="M21.0889 7.18078H18.6743L18.426 4.85117C18.3809 4.4375 18.1778 4.0456 17.8393 3.78434C17.5008 3.52307 17.072 3.39244 16.6433 3.43599L2.74209 4.87294C1.83942 4.96003 1.18498 5.74382 1.29782 6.59293L2.40359 16.7605C2.49386 17.5661 3.19343 18.1757 4.0284 18.1757C4.0961 18.1757 4.14123 18.1757 4.20894 18.1757L5.51781 18.045V19.003C5.51781 19.8739 6.23995 20.5706 7.14262 20.5706H21.0889C21.9916 20.5706 22.7137 19.8739 22.7137 19.003V8.77014C22.7137 7.89926 21.9916 7.18078 21.0889 7.18078ZM5.49524 8.77014V16.7605L4.05097 16.9129C3.893 16.9347 3.71247 16.804 3.71247 16.6516L2.60669 6.4623C2.60669 6.35344 2.65182 6.28813 2.67439 6.24458C2.69696 6.20104 2.76466 6.15749 2.87749 6.13572L16.7561 4.72054H16.7787C16.8689 4.72054 16.9366 4.76408 16.9818 4.78585C17.0269 4.80763 17.072 4.87294 17.0946 4.9818L17.3428 7.18078H7.12005C6.21738 7.18078 5.49524 7.89926 5.49524 8.77014ZM21.3823 19.003C21.3823 19.1772 21.2469 19.3078 21.0663 19.3078H7.12005C6.93952 19.3078 6.80412 19.1772 6.80412 19.003V14.6051L9.467 12.0359C9.76037 11.7529 10.2343 11.7529 10.5276 12.0359L15.876 17.1959C16.0114 17.3266 16.1694 17.3919 16.3499 17.3919C16.5304 17.3919 16.6884 17.3266 16.8238 17.1959C17.072 16.9564 17.072 16.5428 16.8238 16.3033L16.2371 15.7372L17.6136 14.4091C17.6588 14.3656 17.749 14.3656 17.7942 14.4091L21.3823 17.8926V19.003ZM21.3823 16.0856L18.7194 13.5164C18.1552 12.9721 17.23 12.9721 16.6658 13.5164L15.3118 14.8445L11.4755 11.1433C11.0918 10.7732 10.5728 10.5554 10.0086 10.5554C9.44444 10.5554 8.9254 10.7732 8.54176 11.1433L6.80412 12.798V8.77014C6.80412 8.59596 6.93952 8.46533 7.12005 8.46533H21.0663C21.2469 8.46533 21.3823 8.59596 21.3823 8.77014V16.0856Z" fill="#16222C"/>
<path d="M17.6365 11.6819C18.304 11.6819 18.8452 11.1598 18.8452 10.5158C18.8452 9.87172 18.304 9.34961 17.6365 9.34961C16.9689 9.34961 16.4277 9.87172 16.4277 10.5158C16.4277 11.1598 16.9689 11.6819 17.6365 11.6819Z" fill="#16222C"/>
</svg>
