<svg width="24" height="25" viewBox="0 0 24 25" fill="none" xmlns="http://www.w3.org/2000/svg">
<path fill-rule="evenodd" clip-rule="evenodd" d="M12.9549 5.5338C13.0497 5.42544 13.1867 5.36328 13.3306 5.36328C13.6891 5.36328 13.9308 5.72981 13.7896 6.05929L12.0744 10.0614C11.9751 10.2932 11.9988 10.5593 12.1376 10.7698C12.2764 10.9802 12.5116 11.1069 12.7637 11.1069H15.1383C15.8643 11.1069 16.3592 11.1076 16.7345 11.141C17.1047 11.1739 17.2679 11.233 17.3639 11.292C17.6277 11.4541 17.822 11.7084 17.909 12.0056C17.9406 12.1137 17.9547 12.2867 17.8891 12.6525C17.8225 13.0234 17.693 13.501 17.5019 14.2015L16.7858 16.8272C16.5376 17.7373 16.4573 17.9792 16.328 18.1466C16.1944 18.3196 16.0177 18.4546 15.8155 18.538C15.62 18.6187 15.3655 18.6325 14.4222 18.6325H10.2201C9.64771 18.6325 9.26349 18.632 8.96762 18.6078C8.68049 18.5843 8.54321 18.5424 8.45265 18.4963C8.21745 18.3765 8.02622 18.1852 7.90638 17.95C7.86024 17.8595 7.81835 17.7222 7.79489 17.4351C7.77072 17.1392 7.77014 16.755 7.77014 16.1825V12.3798C7.77014 11.9026 7.77416 11.7752 7.79909 11.6614C7.82477 11.5442 7.8672 11.4312 7.92507 11.3261C7.98125 11.224 8.0621 11.1255 8.37632 10.7664L12.9549 5.5338ZM13.3306 3.86328C12.7541 3.86328 12.2056 4.11216 11.826 4.54604L7.24746 9.77866L7.20417 9.82809C6.9531 10.1147 6.7554 10.3404 6.61099 10.6028C6.48367 10.8341 6.39033 11.0825 6.33383 11.3404C6.26975 11.6329 6.26991 11.933 6.27011 12.314L6.27014 12.3798V16.1825L6.27014 16.213C6.27013 16.7471 6.27012 17.193 6.29988 17.5572C6.33091 17.9371 6.39803 18.2938 6.56987 18.631C6.83352 19.1485 7.25422 19.5692 7.77166 19.8328C8.10893 20.0047 8.46558 20.0718 8.84547 20.1028C9.20971 20.1326 9.65557 20.1326 10.1897 20.1325H10.2201H14.4222L14.5563 20.1326H14.5564C15.2989 20.1334 15.8805 20.1339 16.3877 19.9246C16.8324 19.7411 17.2212 19.4442 17.5152 19.0634C17.8506 18.6292 18.0031 18.0679 18.1978 17.3513L18.233 17.2219L18.9491 14.5962L18.9582 14.5627L18.9582 14.5627C19.1378 13.9041 19.2857 13.3619 19.3655 12.9175C19.4475 12.4605 19.4758 12.0187 19.3485 11.5841C19.1571 10.9303 18.7298 10.3708 18.1494 10.014C17.7636 9.77692 17.3298 9.68796 16.8673 9.64684C16.4176 9.60686 15.8556 9.60687 15.173 9.60688H15.1383H13.9011L15.1683 6.65017C15.7337 5.33088 14.766 3.86328 13.3306 3.86328ZM5.30859 11.1774C5.30859 10.7632 4.97281 10.4274 4.55859 10.4274C4.14438 10.4274 3.80859 10.7632 3.80859 11.1774V19.3825C3.80859 19.7968 4.14438 20.1325 4.55859 20.1325C4.97281 20.1325 5.30859 19.7968 5.30859 19.3825L5.30859 11.1774Z" fill="#455564"/>
</svg>
