<svg width="18" height="21" viewBox="0 0 18 21" fill="none" xmlns="http://www.w3.org/2000/svg">
<path d="M16.5 7.5H13.125V4.875C13.125 3.78098 12.6904 2.73177 11.9168 1.95818C11.1432 1.1846 10.094 0.75 9 0.75C7.90598 0.75 6.85677 1.1846 6.08318 1.95818C5.3096 2.73177 4.875 3.78098 4.875 4.875V7.5H1.5C1.10231 7.50045 0.721048 7.65864 0.439842 7.93984C0.158636 8.22105 0.000454817 8.60231 0 9V19.5C0.000454817 19.8977 0.158636 20.279 0.439842 20.5602C0.721048 20.8414 1.10231 20.9995 1.5 21H16.5C16.8977 20.9995 17.279 20.8414 17.5602 20.5602C17.8414 20.279 17.9995 19.8977 18 19.5V9C17.9995 8.60231 17.8414 8.22105 17.5602 7.93984C17.279 7.65864 16.8977 7.50045 16.5 7.5ZM8.99945 15.375C8.77695 15.375 8.55944 15.309 8.37443 15.1854C8.18943 15.0618 8.04523 14.8861 7.96009 14.6805C7.87494 14.475 7.85266 14.2488 7.89607 14.0305C7.93948 13.8123 8.04662 13.6118 8.20396 13.4545C8.36129 13.2972 8.56174 13.19 8.77997 13.1466C8.9982 13.1032 9.2244 13.1255 9.42997 13.2106C9.63554 13.2958 9.81124 13.44 9.93485 13.625C10.0585 13.81 10.1245 14.0275 10.1245 14.25C10.1245 14.3977 10.0954 14.544 10.0388 14.6805C9.98228 14.817 9.89941 14.941 9.79494 15.0455C9.69048 15.15 9.56646 15.2328 9.42997 15.2894C9.29348 15.3459 9.14719 15.375 8.99945 15.375ZM11.625 7.5H6.375V4.875C6.375 4.17881 6.65156 3.51113 7.14384 3.01884C7.63613 2.52656 8.30381 2.25 9 2.25C9.69619 2.25 10.3639 2.52656 10.8562 3.01884C11.3484 3.51113 11.625 4.17881 11.625 4.875V7.5Z" fill="white"/>
</svg>
