<svg width="20" height="20" viewBox="0 0 20 20" fill="none" xmlns="http://www.w3.org/2000/svg">
<path d="M9.99999 2.5H10C10.663 2.5 11.2989 2.76827 11.7678 3.24579C12.2366 3.72332 12.5 4.37098 12.5 5.0463V9.12037C12.5 9.79569 12.2366 10.4434 11.7678 10.9209C11.2989 11.3984 10.663 11.6667 10 11.6667H10C9.67169 11.6667 9.3466 11.6008 9.04329 11.4728C8.73997 11.3449 8.46438 11.1573 8.23223 10.9209C8.00009 10.6844 7.81594 10.4037 7.6903 10.0948C7.56466 9.78587 7.5 9.45476 7.5 9.12038V5.04629C7.5 4.37097 7.76339 3.72331 8.23223 3.24579C8.70107 2.76827 9.33695 2.5 9.99999 2.5V2.5Z" stroke="black" stroke-width="1.5" stroke-linecap="round" stroke-linejoin="round"/>
<path d="M10 14.1665V17.4998" stroke="black" stroke-width="1.5" stroke-linecap="round" stroke-linejoin="round"/>
<path d="M15 10C14.8624 11.1459 14.2764 12.2044 13.354 12.973C12.4316 13.7417 11.2375 14.1667 10 14.1667C8.76251 14.1667 7.56843 13.7417 6.64603 12.973C5.72363 12.2044 5.13761 11.1459 5 10" stroke="black" stroke-width="1.5" stroke-linecap="round" stroke-linejoin="round"/>
</svg>
