<svg width="243" height="128" viewBox="0 0 243 128" fill="none" xmlns="http://www.w3.org/2000/svg">
<path d="M169.357 1.38979C169.621 0.727895 170.473 0.546585 170.983 1.04361L173.861 3.84489C174.252 4.22507 174.266 4.84801 173.893 5.24557L166.863 12.7407C166.089 13.5668 164.754 12.6715 165.224 11.6413L165.576 10.8706L169.357 1.38979Z" fill="#FF6CD6"/>
<path d="M23.9788 64.1866C23.4566 63.8995 23.2998 63.2223 23.6427 62.7349L27.0142 57.9427C27.3637 57.446 28.0716 57.3729 28.5152 57.7878L37.1592 65.8739C37.4602 66.1555 37.5576 66.5929 37.4045 66.9756L36.3183 69.6907C36.0952 70.2483 35.4344 70.4849 34.9081 70.1955L23.9788 64.1866Z" fill="#5146D6"/>
<path d="M224.907 110.222C225.487 110.103 226.042 110.51 226.103 111.099L226.623 116.11C226.685 116.709 226.208 117.226 225.606 117.213L213.832 116.956C213.424 116.947 213.062 116.691 212.918 116.309L212.063 114.043C211.846 113.468 212.195 112.835 212.797 112.711L224.907 110.222Z" fill="#D1BF5E"/>
<path d="M38.7987 127.214C38.373 127.633 37.6776 127.588 37.3097 127.117L35.4108 124.69C35.0357 124.21 35.1726 123.51 35.7008 123.206L41.7137 119.756C42.0719 119.55 42.5196 119.586 42.8406 119.846L43.8617 120.672C44.3257 121.048 44.3593 121.744 43.9338 122.162L38.7987 127.214Z" fill="#D1BF5E"/>
<circle cx="85" cy="24" r="2" fill="#5146D6"/>
<circle cx="2" cy="104" r="2" fill="#5146D6"/>
<circle cx="188.529" cy="78.5288" r="2" transform="rotate(-18.3848 188.529 78.5288)" fill="#D67A46"/>
<path d="M240.153 55.497C240.681 55.2309 241.324 55.4789 241.536 56.031L242.297 58.0074C242.513 58.5691 242.188 59.193 241.603 59.3373L235.463 60.854C235.067 60.9519 234.651 60.7991 234.412 60.4681L233.998 59.8937C233.638 59.3948 233.81 58.6924 234.359 58.4157L240.153 55.497Z" fill="#AE5DFF"/>
</svg>
