<svg width="16" height="16" viewBox="0 0 16 16" fill="none" xmlns="http://www.w3.org/2000/svg">
<path d="M5.33901 15H1.61986C1.45546 15 1.2978 14.9347 1.18155 14.8184C1.06531 14.7022 1 14.5445 1 14.3801V10.9177C1 10.8363 1.01603 10.7557 1.04718 10.6805C1.07833 10.6053 1.12399 10.537 1.18155 10.4794L10.4794 1.18155C10.5957 1.06531 10.7533 1 10.9177 1C11.0821 1 11.2398 1.06531 11.356 1.18155L14.8184 4.64395C14.9347 4.7602 15 4.91786 15 5.08226C15 5.24665 14.9347 5.40432 14.8184 5.52056L5.33901 15Z" stroke="white" stroke-linecap="round" stroke-linejoin="round"/>
<path d="M8.43829 3.22266L12.7773 7.56167" stroke="white" stroke-linecap="round" stroke-linejoin="round"/>
<path d="M14.6369 14.9998H5.339L1.03943 10.7002" stroke="white" stroke-linecap="round" stroke-linejoin="round"/>
</svg>
