<svg width="24" height="24" viewBox="0 0 24 24" fill="none" xmlns="http://www.w3.org/2000/svg">
<path d="M21 12V12.75C21.4142 12.75 21.75 12.4142 21.75 12H21ZM12 3L12 2.25C11.5858 2.25 11.25 2.58579 11.25 3L12 3ZM12 12H11.25V12.75H12V12ZM21.75 12C21.75 10.7196 21.4978 9.45176 21.0078 8.26884L19.622 8.84286C20.0366 9.8438 20.25 10.9166 20.25 12H21.75ZM21.0078 8.26884C20.5178 7.08591 19.7997 6.01108 18.8943 5.10571L17.8336 6.16637C18.5997 6.93245 19.2074 7.84193 19.622 8.84286L21.0078 8.26884ZM18.8943 5.10571C17.9889 4.20034 16.9141 3.48216 15.7312 2.99217L15.1571 4.37799C16.1581 4.7926 17.0675 5.40029 17.8336 6.16637L18.8943 5.10571ZM15.7312 2.99217C14.5482 2.50219 13.2804 2.25 12 2.25L12 3.75C13.0834 3.75 14.1562 3.96339 15.1571 4.37799L15.7312 2.99217ZM11.25 3V12H12.75V3H11.25ZM12 12.75H21V11.25H12V12.75Z" fill="#E56C51"/>
<path d="M20.775 14C20.5322 15.065 20.0963 16.0826 19.4832 17.0001C18.4943 18.4802 17.0887 19.6337 15.4442 20.3149C13.7996 20.9961 11.99 21.1743 10.2442 20.8271C8.49836 20.4798 6.89472 19.6226 5.63604 18.364C4.37737 17.1053 3.5202 15.5016 3.17294 13.7558C2.82567 12.01 3.0039 10.2004 3.68509 8.55585C4.36628 6.91132 5.51983 5.50571 6.99987 4.51678C7.91745 3.90367 8.93497 3.46779 10 3.22504" stroke="#E56C51" stroke-width="1.5" stroke-linecap="round"/>
</svg>
