<svg width="175" height="141" viewBox="0 0 175 141" fill="none" xmlns="http://www.w3.org/2000/svg">
<path d="M87.6261 128.104C99.0994 128.104 109.942 126.492 119.525 123.392L132.133 141H168.948L146.38 107.273C164.787 91.773 175 66.1055 175 33.9901C175 -24.0407 141.084 -60 87.6261 -60C34.1679 -60 0 -24.0407 0 33.9901C0 92.393 33.7896 128.104 87.6261 128.104ZM87.7522 95.2449C57.9971 95.2449 38.9589 71.6854 38.9589 33.9901C38.9589 -3.45712 58.1232 -27.1407 87.6261 -27.1407C117.003 -27.1407 136.167 -3.45712 136.167 33.9901C136.167 51.2258 131.502 65.1135 123.181 73.9173L114.733 63.8735H80.1873L100.865 93.6329C96.5778 94.6249 92.2911 95.2449 87.7522 95.2449Z" fill="white" fill-opacity="0.15"/>
</svg>
