<svg width="20" height="20" viewBox="0 0 20 20" fill="none" xmlns="http://www.w3.org/2000/svg">
<path d="M1.34616 11.3329C1.53742 11.3329 1.72084 11.2465 1.85608 11.0926C1.99132 10.9387 2.0673 10.73 2.06731 10.5124C2.06882 8.98965 2.60116 7.52974 3.54753 6.45299C4.49391 5.37623 5.77704 4.77055 7.11541 4.76883H16.9129L15.9805 5.82968C15.8452 5.98357 15.7693 6.19227 15.7693 6.40989C15.7693 6.62751 15.8453 6.83621 15.9805 6.99008C16.1158 7.14396 16.2992 7.2304 16.4905 7.23039C16.6818 7.23038 16.8652 7.14392 17.0004 6.99003L19.1639 4.5285C19.1663 4.52575 19.1684 4.52264 19.1708 4.51984C19.1849 4.50336 19.1986 4.48643 19.2115 4.4686C19.2191 4.45809 19.2257 4.44702 19.2328 4.4362C19.2397 4.42559 19.247 4.41522 19.2534 4.4042C19.2608 4.39163 19.2673 4.37861 19.274 4.36574C19.2793 4.35563 19.2848 4.34581 19.2897 4.33544C19.2959 4.32242 19.301 4.30905 19.3065 4.29578C19.3111 4.28476 19.3159 4.27394 19.32 4.26263C19.3247 4.24976 19.3285 4.23664 19.3326 4.22356C19.3364 4.21134 19.3406 4.19933 19.3439 4.18686C19.3474 4.17369 19.35 4.16026 19.3529 4.14694C19.3557 4.13433 19.3588 4.1218 19.3611 4.10893C19.3638 4.09346 19.3654 4.07778 19.3673 4.06211C19.3687 4.05124 19.3705 4.04057 19.3715 4.02955C19.3762 3.97553 19.3762 3.92111 19.3715 3.86709C19.3705 3.85608 19.3687 3.84541 19.3673 3.83454C19.3654 3.81887 19.3638 3.80319 19.3611 3.78772C19.3588 3.77484 19.3557 3.76233 19.3529 3.74971C19.35 3.73638 19.3474 3.72296 19.3439 3.70979C19.3406 3.69732 19.3364 3.6853 19.3326 3.67308C19.3285 3.66001 19.3247 3.64689 19.32 3.63402C19.3159 3.6227 19.3111 3.61189 19.3065 3.60087C19.301 3.5876 19.2959 3.57422 19.2897 3.5612C19.2848 3.55084 19.2793 3.54102 19.274 3.53091C19.2673 3.51804 19.2608 3.50501 19.2534 3.49244C19.247 3.48143 19.2397 3.47106 19.2328 3.46044C19.2257 3.44963 19.2191 3.43856 19.2115 3.42804C19.1984 3.40986 19.1844 3.39264 19.17 3.37581C19.1679 3.37336 19.166 3.3706 19.1639 3.36815L17.0004 0.906613C16.8652 0.752727 16.6818 0.666269 16.4905 0.66626C16.2992 0.66625 16.1158 0.75269 15.9805 0.906562C15.8453 1.06043 15.7693 1.26914 15.7693 1.48675C15.7693 1.70437 15.8452 1.91308 15.9805 2.06697L16.9129 3.12781H7.11541C5.39464 3.13002 3.74491 3.90874 2.52814 5.29315C1.31137 6.67755 0.626938 8.55457 0.625 10.5124C0.625009 10.73 0.700991 10.9387 0.836232 11.0926C0.971473 11.2465 1.1549 11.3329 1.34616 11.3329Z" fill="white" stroke="white" stroke-width="0.5"/>
<path d="M18.6538 8.66626C18.4626 8.66627 18.2792 8.75272 18.1439 8.90659C18.0087 9.06047 17.9327 9.26916 17.9327 9.48677C17.9312 11.0095 17.3988 12.4694 16.4525 13.5462C15.5061 14.623 14.223 15.2286 12.8846 15.2303H3.08711L4.01952 14.1695C4.15476 14.0156 4.23073 13.8069 4.23072 13.5893C4.23072 13.3717 4.15473 13.163 4.01948 13.0091C3.88422 12.8552 3.70079 12.7688 3.50952 12.7688C3.31825 12.7688 3.13482 12.8553 2.99958 13.0091L0.836111 15.4707C0.833955 15.4731 0.832151 15.4759 0.830016 15.4783C0.815622 15.4952 0.801626 15.5124 0.78853 15.5306C0.780937 15.5411 0.774314 15.5522 0.767249 15.563C0.760294 15.5736 0.753054 15.584 0.746562 15.595C0.73917 15.6075 0.73274 15.6206 0.726028 15.6334C0.720746 15.6436 0.715178 15.6534 0.710292 15.6637C0.704152 15.6768 0.698958 15.6901 0.693478 15.7034C0.688945 15.7144 0.684081 15.7252 0.679966 15.7366C0.675278 15.7494 0.671492 15.7625 0.667399 15.7756C0.663569 15.7878 0.659432 15.7999 0.656109 15.8123C0.652609 15.8255 0.650012 15.8389 0.647107 15.8522C0.644334 15.8649 0.641187 15.8774 0.638943 15.8903C0.636238 15.9057 0.634562 15.9214 0.63267 15.9371C0.631327 15.9479 0.629479 15.9586 0.628533 15.9696C0.623822 16.0236 0.623822 16.0781 0.628533 16.1321C0.629479 16.1431 0.631327 16.1538 0.63267 16.1646C0.634563 16.1803 0.636236 16.196 0.638943 16.2115C0.641187 16.2243 0.644334 16.2369 0.647107 16.2495C0.650012 16.2628 0.652606 16.2762 0.656109 16.2894C0.659432 16.3019 0.663569 16.3139 0.667399 16.3261C0.671492 16.3392 0.675277 16.3523 0.679966 16.3652C0.684081 16.3765 0.688945 16.3873 0.693478 16.3983C0.698958 16.4116 0.704152 16.425 0.710292 16.438C0.715178 16.4483 0.720749 16.4582 0.726028 16.4683C0.73274 16.4811 0.739166 16.4942 0.746562 16.5067C0.753052 16.5178 0.760294 16.5281 0.767249 16.5387C0.774314 16.5496 0.780937 16.5606 0.78853 16.5711C0.801383 16.589 0.815138 16.6059 0.829245 16.6224C0.831644 16.6252 0.833668 16.6283 0.836111 16.631L2.99958 19.0926C3.06655 19.1688 3.14605 19.2292 3.23354 19.2704C3.32104 19.3117 3.41481 19.3329 3.50952 19.3329C3.60423 19.3329 3.69801 19.3117 3.7855 19.2705C3.873 19.2292 3.95251 19.1688 4.01948 19.0926C4.08645 19.0164 4.13957 18.926 4.17582 18.8264C4.21206 18.7269 4.23072 18.6202 4.23072 18.5124C4.23073 18.4047 4.21208 18.298 4.17584 18.1984C4.1396 18.0989 4.08648 18.0084 4.01952 17.9322L3.08711 16.8714H12.8846C14.6054 16.8692 16.2551 16.0904 17.4719 14.706C18.6886 13.3216 19.3731 11.4446 19.375 9.48677C19.375 9.26916 19.299 9.06047 19.1638 8.90659C19.0285 8.75272 18.8451 8.66627 18.6538 8.66626Z" fill="white" stroke="white" stroke-width="0.5"/>
</svg>
