<svg width="24" height="24" viewBox="0 0 24 24" fill="none" xmlns="http://www.w3.org/2000/svg">
<path d="M19.111 11.0639L18.8032 10.6699L18.5707 10.8515L18.6173 11.1429L19.111 11.0639ZM21.139 9.4799L21.4468 9.87398L21.4514 9.87034L21.139 9.4799ZM21.259 8.8679L21.7009 8.63396L21.6966 8.6258L21.692 8.61782L21.259 8.8679ZM19.339 5.5439L18.9019 5.78676L18.9061 5.79399L19.339 5.5439ZM18.751 5.3279L18.5929 4.85356L18.5786 4.85834L18.5645 4.86399L18.751 5.3279ZM16.363 6.2879L16.06 6.68562L16.286 6.85777L16.5495 6.75182L16.363 6.2879ZM14.743 5.3519L14.2479 5.42196L14.2882 5.7063L14.5541 5.81483L14.743 5.3519ZM14.383 2.8079L14.8781 2.73784L14.8775 2.73373L14.383 2.8079ZM9.59502 2.8079L9.10053 2.73373L9.09995 2.73785L9.59502 2.8079ZM9.23502 5.3519L9.42397 5.81483L9.68985 5.7063L9.73008 5.42196L9.23502 5.3519ZM7.61502 6.2879L7.42852 6.75182L7.69095 6.85732L7.91657 6.68673L7.61502 6.2879ZM5.22702 5.3279L5.41353 4.86396L5.40824 4.8619L5.22702 5.3279ZM4.63902 5.5439L5.07204 5.79402L5.0761 5.78672L4.63902 5.5439ZM2.71902 8.8679L2.28599 8.61778L2.28194 8.62508L2.71902 8.8679ZM2.83902 9.4799L3.14685 9.08578L3.13902 9.0799L2.83902 9.4799ZM4.86702 11.0639L5.36074 11.1429L5.40736 10.8515L5.17479 10.6699L4.86702 11.0639ZM4.85502 12.9359L5.16279 13.33L5.39536 13.1483L5.34874 12.8569L4.85502 12.9359ZM2.82702 14.5199L2.51922 14.1258L2.51467 14.1295L2.82702 14.5199ZM2.70702 15.1319L2.26512 15.3658L2.26944 15.374L2.27405 15.382L2.70702 15.1319ZM4.62702 18.4559L5.06416 18.213L5.05998 18.2058L4.62702 18.4559ZM5.21502 18.6719L5.37313 19.1462L5.38748 19.1415L5.40152 19.1358L5.21502 18.6719ZM7.60302 17.7119L7.90604 17.3142L7.68008 17.142L7.41652 17.248L7.60302 17.7119ZM9.22302 18.6479L9.71808 18.5778L9.67785 18.2935L9.41197 18.185L9.22302 18.6479ZM9.58302 21.1919L9.08795 21.262L9.08994 21.276L9.09273 21.29L9.58302 21.1919ZM14.371 21.1919L13.8759 21.1218L13.8745 21.132L13.8735 21.1422L14.371 21.1919ZM14.731 18.6479L14.5421 18.185L14.2762 18.2935L14.2359 18.5778L14.731 18.6479ZM16.351 17.7119L16.5375 17.248L16.2751 17.1425L16.0495 17.3131L16.351 17.7119ZM18.739 18.6719L18.5525 19.1358L18.5578 19.1379L18.739 18.6719ZM19.327 18.4559L18.894 18.2058L18.8899 18.2131L19.327 18.4559ZM21.247 15.1319L21.68 15.382L21.6841 15.3747L21.247 15.1319ZM21.127 14.5199L20.8169 14.9123L20.827 14.9199L21.127 14.5199ZM19.6195 12.9955C19.6572 12.681 19.683 12.3485 19.683 11.9999H18.683C18.683 12.2993 18.6608 12.5908 18.6266 12.8763L19.6195 12.9955ZM19.683 11.9999C19.683 11.6512 19.6572 11.3127 19.6047 10.9849L18.6173 11.1429C18.6609 11.4151 18.683 11.7006 18.683 11.9999H19.683ZM19.4188 11.4579L21.4468 9.87395L20.8312 9.08585L18.8032 10.6699L19.4188 11.4579ZM21.4514 9.87034C21.829 9.56823 21.9151 9.03853 21.7009 8.63396L20.8171 9.10185C20.816 9.09981 20.816 9.09883 20.8161 9.09935C20.8162 9.10003 20.8162 9.10118 20.816 9.10223C20.8154 9.10514 20.8159 9.0981 20.8267 9.08947L21.4514 9.87034ZM21.692 8.61782L19.772 5.29382L18.9061 5.79399L20.8261 9.11799L21.692 8.61782ZM19.7761 5.30108C19.5226 4.84471 19.0029 4.71689 18.5929 4.85356L18.9091 5.80224C18.9119 5.80132 18.9148 5.8009 18.9171 5.8009C18.9195 5.8009 18.9201 5.80131 18.9189 5.80088C18.9174 5.80036 18.9139 5.79885 18.9097 5.79544C18.9052 5.79176 18.9027 5.78809 18.9019 5.78672L19.7761 5.30108ZM18.5645 4.86399L16.1765 5.82399L16.5495 6.75182L18.9375 5.79182L18.5645 4.86399ZM16.666 5.89019C16.1309 5.48247 15.565 5.14734 14.932 4.88898L14.5541 5.81483C15.0971 6.03646 15.5871 6.32533 16.06 6.68562L16.666 5.89019ZM15.2381 5.28185L14.8781 2.73785L13.8879 2.87796L14.2479 5.42196L15.2381 5.28185ZM14.8775 2.73373C14.8033 2.23941 14.3807 1.8999 13.903 1.8999V2.8999C13.9052 2.8999 13.9021 2.90029 13.8974 2.89636C13.8952 2.89449 13.893 2.89189 13.8911 2.88866C13.8892 2.88522 13.8886 2.8826 13.8885 2.88207L14.8775 2.73373ZM13.903 1.8999H10.063V2.8999H13.903V1.8999ZM10.063 1.8999C9.56974 1.8999 9.1724 2.25473 9.10055 2.73373L10.0895 2.88207C10.09 2.87837 10.0906 2.87849 10.0892 2.88104C10.0879 2.88352 10.0853 2.88707 10.0813 2.89061C10.0772 2.89418 10.0726 2.89681 10.0683 2.89841C10.064 2.90005 10.0617 2.8999 10.063 2.8999V1.8999ZM9.09995 2.73785L8.73995 5.28185L9.73008 5.42196L10.0901 2.87796L9.09995 2.73785ZM9.04607 4.88898C8.41157 5.14796 7.83413 5.49539 7.31346 5.88907L7.91657 6.68673C8.3799 6.33641 8.88246 6.03585 9.42397 5.81483L9.04607 4.88898ZM7.80152 5.82399L5.41352 4.86399L5.04052 5.79182L7.42852 6.75182L7.80152 5.82399ZM5.40824 4.8619C4.96212 4.68841 4.44475 4.86402 4.20194 5.30108L5.0761 5.78672C5.07646 5.78607 5.07566 5.7876 5.07316 5.78971C5.07086 5.79165 5.06812 5.79323 5.06519 5.79427C5.05953 5.79629 5.05243 5.79649 5.04579 5.7939L5.40824 4.8619ZM4.20605 5.29382L2.28605 8.61782L3.15198 9.11799L5.07198 5.79399L4.20605 5.29382ZM2.28194 8.62508C2.04843 9.0454 2.13448 9.5765 2.53902 9.8799L3.13902 9.0799C3.13892 9.07983 3.13911 9.07997 3.13902 9.0799C3.13892 9.07983 3.13911 9.07997 3.13902 9.0799C3.13902 9.07991 3.13902 9.07991 3.13903 9.07991C3.13904 9.07992 3.13905 9.07993 3.13906 9.07994C3.13909 9.07996 3.13914 9.08 3.1392 9.08005C3.13931 9.08014 3.13948 9.08028 3.13969 9.08047C3.14012 9.08086 3.14069 9.08141 3.14137 9.08215C3.14276 9.08366 3.14439 9.08571 3.14601 9.0883C3.14939 9.09368 3.1517 9.0997 3.15282 9.10547C3.15393 9.11116 3.15359 9.11509 3.15334 9.1166C3.15308 9.11816 3.15311 9.11609 3.1561 9.11072L2.28194 8.62508ZM2.53124 9.87395L4.55924 11.4579L5.17479 10.6699L3.14679 9.08585L2.53124 9.87395ZM4.3733 10.9849C4.32293 11.2997 4.28302 11.652 4.28302 11.9999H5.28302C5.28302 11.7238 5.3151 11.4281 5.36074 11.1429L4.3733 10.9849ZM4.28302 11.9999C4.28302 12.3361 4.30878 12.6867 4.3613 13.0149L5.34874 12.8569C5.30526 12.5852 5.28302 12.2877 5.28302 11.9999H4.28302ZM4.54724 12.5419L2.51924 14.1259L3.13479 14.9139L5.16279 13.33L4.54724 12.5419ZM2.51467 14.1295C2.13704 14.4316 2.05093 14.9613 2.26512 15.3658L3.14891 14.898C3.14999 14.9 3.15004 14.901 3.14997 14.9005C3.14987 14.8998 3.14987 14.8986 3.15007 14.8976C3.15063 14.8947 3.15015 14.9017 3.13936 14.9103L2.51467 14.1295ZM2.27405 15.382L4.19405 18.706L5.05998 18.2058L3.13998 14.8818L2.27405 15.382ZM4.18994 18.6987C4.44348 19.1551 4.96311 19.2829 5.37313 19.1462L5.0569 18.1976C5.05413 18.1985 5.05128 18.1989 5.04889 18.1989C5.04649 18.1989 5.0459 18.1985 5.04718 18.1989C5.04867 18.1994 5.05214 18.201 5.0563 18.2044C5.06078 18.208 5.06333 18.2117 5.0641 18.2131L4.18994 18.6987ZM5.40152 19.1358L7.78952 18.1758L7.41652 17.248L5.02852 18.208L5.40152 19.1358ZM7.3 18.1096C7.83512 18.5173 8.40108 18.8525 9.03407 19.1108L9.41197 18.185C8.86896 17.9633 8.37891 17.6745 7.90604 17.3142L7.3 18.1096ZM8.72795 18.718L9.08795 21.262L10.0781 21.1218L9.71808 18.5778L8.72795 18.718ZM9.09273 21.29C9.18371 21.7449 9.56603 22.0999 10.063 22.0999V21.0999C10.0618 21.0999 10.0638 21.0998 10.0676 21.1012C10.0712 21.1025 10.0743 21.1045 10.0764 21.1063C10.0785 21.108 10.0786 21.1088 10.0778 21.1074C10.077 21.1061 10.0749 21.1019 10.0733 21.0938L9.09273 21.29ZM10.063 22.0999H13.903V21.0999H10.063V22.0999ZM13.903 22.0999C14.3753 22.0999 14.8166 21.761 14.8685 21.2417L13.8735 21.1422C13.874 21.1374 13.8758 21.1303 13.8798 21.1227C13.8837 21.1153 13.8884 21.1099 13.8926 21.1063C13.901 21.0991 13.906 21.0999 13.903 21.0999V22.0999ZM14.8661 21.262L15.2261 18.718L14.2359 18.5778L13.8759 21.1218L14.8661 21.262ZM14.92 19.1108C15.5545 18.8518 16.1319 18.5044 16.6526 18.1107L16.0495 17.3131C15.5861 17.6634 15.0836 17.964 14.5421 18.185L14.92 19.1108ZM16.1645 18.1758L18.5525 19.1358L18.9255 18.208L16.5375 17.248L16.1645 18.1758ZM18.5578 19.1379C19.0039 19.3114 19.5213 19.1358 19.7641 18.6987L18.8899 18.2131C18.8896 18.2137 18.8904 18.2122 18.8929 18.2101C18.8952 18.2082 18.8979 18.2066 18.9008 18.2055C18.9065 18.2035 18.9136 18.2033 18.9202 18.2059L18.5578 19.1379ZM19.76 18.706L21.68 15.382L20.8141 14.8818L18.8941 18.2058L19.76 18.706ZM21.6841 15.3747C21.9176 14.9544 21.8316 14.4233 21.427 14.1199L20.827 14.9199C20.8271 14.92 20.8269 14.9198 20.827 14.9199C20.8271 14.92 20.8269 14.9198 20.827 14.9199C20.827 14.9199 20.827 14.9199 20.827 14.9199C20.827 14.9199 20.827 14.9199 20.827 14.9199C20.8269 14.9198 20.8269 14.9198 20.8268 14.9198C20.8267 14.9197 20.8266 14.9195 20.8263 14.9193C20.8259 14.9189 20.8253 14.9184 20.8247 14.9177C20.8233 14.9161 20.8216 14.9141 20.82 14.9115C20.8166 14.9061 20.8143 14.9001 20.8132 14.8943C20.8121 14.8886 20.8124 14.8847 20.8127 14.8832C20.813 14.8816 20.8129 14.8837 20.8099 14.8891L21.6841 15.3747ZM21.4371 14.1276L19.4331 12.5436L18.813 13.3282L20.817 14.9122L21.4371 14.1276ZM11.9831 15.0999C10.2792 15.0999 8.88306 13.7038 8.88306 11.9999H7.88306C7.88306 14.256 9.72691 16.0999 11.9831 16.0999V15.0999ZM8.88306 11.9999C8.88306 10.296 10.2792 8.8999 11.9831 8.8999V7.8999C9.72691 7.8999 7.88306 9.74376 7.88306 11.9999H8.88306ZM11.9831 8.8999C13.6869 8.8999 15.0831 10.296 15.0831 11.9999H16.0831C16.0831 9.74376 14.2392 7.8999 11.9831 7.8999V8.8999ZM15.0831 11.9999C15.0831 13.7038 13.6869 15.0999 11.9831 15.0999V16.0999C14.2392 16.0999 16.0831 14.256 16.0831 11.9999H15.0831Z" fill="white"/>
</svg>
