<svg width="20" height="22" viewBox="0 0 20 22" fill="none" xmlns="http://www.w3.org/2000/svg">
<path d="M17.111 10.0639L16.8032 9.66985L16.5707 9.8515L16.6173 10.1429L17.111 10.0639ZM19.139 8.4799L19.4468 8.87398L19.4514 8.87034L19.139 8.4799ZM19.259 7.8679L19.7009 7.63396L19.6966 7.6258L19.692 7.61782L19.259 7.8679ZM17.339 4.5439L16.9019 4.78676L16.9061 4.79399L17.339 4.5439ZM16.751 4.3279L16.5929 3.85356L16.5786 3.85834L16.5645 3.86399L16.751 4.3279ZM14.363 5.2879L14.06 5.68562L14.286 5.85777L14.5495 5.75182L14.363 5.2879ZM12.743 4.3519L12.2479 4.42196L12.2882 4.7063L12.5541 4.81483L12.743 4.3519ZM12.383 1.8079L12.8781 1.73784L12.8775 1.73373L12.383 1.8079ZM7.59502 1.8079L7.10053 1.73373L7.09995 1.73785L7.59502 1.8079ZM7.23502 4.3519L7.42397 4.81483L7.68985 4.7063L7.73008 4.42196L7.23502 4.3519ZM5.61502 5.2879L5.42852 5.75182L5.69095 5.85732L5.91657 5.68673L5.61502 5.2879ZM3.22702 4.3279L3.41353 3.86396L3.40824 3.8619L3.22702 4.3279ZM2.63902 4.5439L3.07204 4.79402L3.0761 4.78672L2.63902 4.5439ZM0.719017 7.8679L0.285994 7.61778L0.281938 7.62508L0.719017 7.8679ZM0.839017 8.4799L1.14685 8.08578L1.13902 8.0799L0.839017 8.4799ZM2.86702 10.0639L3.36074 10.1429L3.40736 9.8515L3.17479 9.66985L2.86702 10.0639ZM2.85502 11.9359L3.16279 12.33L3.39536 12.1483L3.34874 11.8569L2.85502 11.9359ZM0.827017 13.5199L0.519219 13.1258L0.514669 13.1295L0.827017 13.5199ZM0.707017 14.1319L0.265123 14.3658L0.26944 14.374L0.274054 14.382L0.707017 14.1319ZM2.62702 17.4559L3.06416 17.213L3.05998 17.2058L2.62702 17.4559ZM3.21502 17.6719L3.37313 18.1462L3.38748 18.1415L3.40152 18.1358L3.21502 17.6719ZM5.60302 16.7119L5.90604 16.3142L5.68008 16.142L5.41652 16.248L5.60302 16.7119ZM7.22302 17.6479L7.71808 17.5778L7.67785 17.2935L7.41197 17.185L7.22302 17.6479ZM7.58302 20.1919L7.08795 20.262L7.08994 20.276L7.09273 20.29L7.58302 20.1919ZM12.371 20.1919L11.8759 20.1218L11.8745 20.132L11.8735 20.1422L12.371 20.1919ZM12.731 17.6479L12.5421 17.185L12.2762 17.2935L12.2359 17.5778L12.731 17.6479ZM14.351 16.7119L14.5375 16.248L14.2751 16.1425L14.0495 16.3131L14.351 16.7119ZM16.739 17.6719L16.5525 18.1358L16.5578 18.1379L16.739 17.6719ZM17.327 17.4559L16.894 17.2058L16.8899 17.2131L17.327 17.4559ZM19.247 14.1319L19.68 14.382L19.6841 14.3747L19.247 14.1319ZM19.127 13.5199L18.8169 13.9123L18.827 13.9199L19.127 13.5199ZM17.6195 11.9955C17.6572 11.681 17.683 11.3485 17.683 10.9999H16.683C16.683 11.2993 16.6608 11.5908 16.6266 11.8763L17.6195 11.9955ZM17.683 10.9999C17.683 10.6512 17.6572 10.3127 17.6047 9.98491L16.6173 10.1429C16.6609 10.4151 16.683 10.7006 16.683 10.9999H17.683ZM17.4188 10.4579L19.4468 8.87395L18.8312 8.08585L16.8032 9.66985L17.4188 10.4579ZM19.4514 8.87034C19.829 8.56823 19.9151 8.03853 19.7009 7.63396L18.8171 8.10185C18.816 8.09981 18.816 8.09883 18.8161 8.09935C18.8162 8.10003 18.8162 8.10118 18.816 8.10223C18.8154 8.10514 18.8159 8.0981 18.8267 8.08947L19.4514 8.87034ZM19.692 7.61782L17.772 4.29382L16.9061 4.79399L18.8261 8.11799L19.692 7.61782ZM17.7761 4.30108C17.5226 3.84471 17.0029 3.71689 16.5929 3.85356L16.9091 4.80224C16.9119 4.80132 16.9148 4.8009 16.9171 4.8009C16.9195 4.8009 16.9201 4.80131 16.9189 4.80088C16.9174 4.80036 16.9139 4.79885 16.9097 4.79544C16.9052 4.79176 16.9027 4.78809 16.9019 4.78672L17.7761 4.30108ZM16.5645 3.86399L14.1765 4.82399L14.5495 5.75182L16.9375 4.79182L16.5645 3.86399ZM14.666 4.89019C14.1309 4.48247 13.565 4.14734 12.932 3.88898L12.5541 4.81483C13.0971 5.03646 13.5871 5.32533 14.06 5.68562L14.666 4.89019ZM13.2381 4.28185L12.8781 1.73785L11.8879 1.87796L12.2479 4.42196L13.2381 4.28185ZM12.8775 1.73373C12.8033 1.23941 12.3807 0.899902 11.903 0.899902V1.8999C11.9052 1.8999 11.9021 1.90029 11.8974 1.89636C11.8952 1.89449 11.893 1.89189 11.8911 1.88866C11.8892 1.88522 11.8886 1.8826 11.8885 1.88207L12.8775 1.73373ZM11.903 0.899902H8.06302V1.8999H11.903V0.899902ZM8.06302 0.899902C7.56974 0.899902 7.1724 1.25473 7.10055 1.73373L8.08949 1.88207C8.09004 1.87837 8.09061 1.87849 8.08923 1.88104C8.08788 1.88352 8.08535 1.88707 8.08128 1.89061C8.0772 1.89418 8.07263 1.89681 8.06835 1.89841C8.06395 1.90005 8.06174 1.8999 8.06302 1.8999V0.899902ZM7.09995 1.73785L6.73995 4.28185L7.73008 4.42196L8.09008 1.87796L7.09995 1.73785ZM7.04607 3.88898C6.41157 4.14796 5.83413 4.49539 5.31346 4.88907L5.91657 5.68673C6.3799 5.33641 6.88246 5.03585 7.42397 4.81483L7.04607 3.88898ZM5.80152 4.82399L3.41352 3.86399L3.04052 4.79182L5.42852 5.75182L5.80152 4.82399ZM3.40824 3.8619C2.96212 3.68841 2.44475 3.86402 2.20194 4.30108L3.0761 4.78672C3.07646 4.78607 3.07566 4.7876 3.07316 4.78971C3.07086 4.79165 3.06812 4.79323 3.06519 4.79427C3.05953 4.79629 3.05243 4.79649 3.04579 4.7939L3.40824 3.8619ZM2.20605 4.29382L0.286054 7.61782L1.15198 8.11799L3.07198 4.79399L2.20605 4.29382ZM0.281938 7.62508C0.0484251 8.0454 0.134481 8.5765 0.539017 8.8799L1.13902 8.0799C1.13892 8.07983 1.13911 8.07997 1.13902 8.0799C1.13892 8.07983 1.13911 8.07997 1.13902 8.0799C1.13902 8.07991 1.13902 8.07991 1.13903 8.07991C1.13904 8.07992 1.13905 8.07993 1.13906 8.07994C1.13909 8.07996 1.13914 8.08 1.1392 8.08005C1.13931 8.08014 1.13948 8.08028 1.13969 8.08047C1.14012 8.08086 1.14069 8.08141 1.14137 8.08215C1.14276 8.08366 1.14439 8.08571 1.14601 8.0883C1.14939 8.09368 1.1517 8.0997 1.15282 8.10547C1.15393 8.11116 1.15359 8.11509 1.15334 8.1166C1.15308 8.11816 1.15311 8.11609 1.1561 8.11072L0.281938 7.62508ZM0.53124 8.87395L2.55924 10.4579L3.17479 9.66985L1.14679 8.08585L0.53124 8.87395ZM2.3733 9.98491C2.32293 10.2997 2.28302 10.652 2.28302 10.9999H3.28302C3.28302 10.7238 3.3151 10.4281 3.36074 10.1429L2.3733 9.98491ZM2.28302 10.9999C2.28302 11.3361 2.30878 11.6867 2.3613 12.0149L3.34874 11.8569C3.30526 11.5852 3.28302 11.2877 3.28302 10.9999H2.28302ZM2.54724 11.5419L0.51924 13.1259L1.13479 13.9139L3.16279 12.33L2.54724 11.5419ZM0.514669 13.1295C0.137043 13.4316 0.0509346 13.9613 0.265123 14.3658L1.14891 13.898C1.14999 13.9 1.15004 13.901 1.14997 13.9005C1.14987 13.8998 1.14987 13.8986 1.15007 13.8976C1.15063 13.8947 1.15015 13.9017 1.13936 13.9103L0.514669 13.1295ZM0.274054 14.382L2.19405 17.706L3.05998 17.2058L1.13998 13.8818L0.274054 14.382ZM2.18994 17.6987C2.44348 18.1551 2.96311 18.2829 3.37313 18.1462L3.0569 17.1976C3.05413 17.1985 3.05128 17.1989 3.04889 17.1989C3.04649 17.1989 3.0459 17.1985 3.04718 17.1989C3.04867 17.1994 3.05214 17.201 3.0563 17.2044C3.06078 17.208 3.06333 17.2117 3.0641 17.2131L2.18994 17.6987ZM3.40152 18.1358L5.78952 17.1758L5.41652 16.248L3.02852 17.208L3.40152 18.1358ZM5.3 17.1096C5.83512 17.5173 6.40108 17.8525 7.03407 18.1108L7.41197 17.185C6.86896 16.9633 6.37891 16.6745 5.90604 16.3142L5.3 17.1096ZM6.72795 17.718L7.08795 20.262L8.07808 20.1218L7.71808 17.5778L6.72795 17.718ZM7.09273 20.29C7.18371 20.7449 7.56603 21.0999 8.06302 21.0999V20.0999C8.06185 20.0999 8.06384 20.0998 8.06761 20.1012C8.07123 20.1025 8.07431 20.1045 8.07641 20.1063C8.07845 20.108 8.07863 20.1088 8.07783 20.1074C8.07704 20.1061 8.07491 20.1019 8.07331 20.0938L7.09273 20.29ZM8.06302 21.0999H11.903V20.0999H8.06302V21.0999ZM11.903 21.0999C12.3753 21.0999 12.8166 20.761 12.8685 20.2417L11.8735 20.1422C11.874 20.1374 11.8758 20.1303 11.8798 20.1227C11.8837 20.1153 11.8884 20.1099 11.8926 20.1063C11.901 20.0991 11.906 20.0999 11.903 20.0999V21.0999ZM12.8661 20.262L13.2261 17.718L12.2359 17.5778L11.8759 20.1218L12.8661 20.262ZM12.92 18.1108C13.5545 17.8518 14.1319 17.5044 14.6526 17.1107L14.0495 16.3131C13.5861 16.6634 13.0836 16.964 12.5421 17.185L12.92 18.1108ZM14.1645 17.1758L16.5525 18.1358L16.9255 17.208L14.5375 16.248L14.1645 17.1758ZM16.5578 18.1379C17.0039 18.3114 17.5213 18.1358 17.7641 17.6987L16.8899 17.2131C16.8896 17.2137 16.8904 17.2122 16.8929 17.2101C16.8952 17.2082 16.8979 17.2066 16.9008 17.2055C16.9065 17.2035 16.9136 17.2033 16.9202 17.2059L16.5578 18.1379ZM17.76 17.706L19.68 14.382L18.8141 13.8818L16.8941 17.2058L17.76 17.706ZM19.6841 14.3747C19.9176 13.9544 19.8316 13.4233 19.427 13.1199L18.827 13.9199C18.8271 13.92 18.8269 13.9198 18.827 13.9199C18.8271 13.92 18.8269 13.9198 18.827 13.9199C18.827 13.9199 18.827 13.9199 18.827 13.9199C18.827 13.9199 18.827 13.9199 18.827 13.9199C18.8269 13.9198 18.8269 13.9198 18.8268 13.9198C18.8267 13.9197 18.8266 13.9195 18.8263 13.9193C18.8259 13.9189 18.8253 13.9184 18.8247 13.9177C18.8233 13.9161 18.8216 13.9141 18.82 13.9115C18.8166 13.9061 18.8143 13.9001 18.8132 13.8943C18.8121 13.8886 18.8124 13.8847 18.8127 13.8832C18.813 13.8816 18.8129 13.8837 18.8099 13.8891L19.6841 14.3747ZM19.4371 13.1276L17.4331 11.5436L16.813 12.3282L18.817 13.9122L19.4371 13.1276ZM9.98306 14.0999C8.2792 14.0999 6.88306 12.7038 6.88306 10.9999H5.88306C5.88306 13.256 7.72691 15.0999 9.98306 15.0999V14.0999ZM6.88306 10.9999C6.88306 9.29604 8.2792 7.8999 9.98306 7.8999V6.8999C7.72691 6.8999 5.88306 8.74376 5.88306 10.9999H6.88306ZM9.98306 7.8999C11.6869 7.8999 13.0831 9.29604 13.0831 10.9999H14.0831C14.0831 8.74376 12.2392 6.8999 9.98306 6.8999V7.8999ZM13.0831 10.9999C13.0831 12.7038 11.6869 14.0999 9.98306 14.0999V15.0999C12.2392 15.0999 14.0831 13.256 14.0831 10.9999H13.0831Z" fill="white"/>
</svg>
