<svg width="24" height="25" viewBox="0 0 24 25" fill="none" xmlns="http://www.w3.org/2000/svg">
<path fill-rule="evenodd" clip-rule="evenodd" d="M13.8698 6.6172C14.2073 5.21324 15.4712 4.16992 16.9787 4.16992C18.7445 4.16992 20.176 5.60141 20.176 7.36725C20.176 9.13308 18.7445 10.5646 16.9787 10.5646C15.4711 10.5646 14.2073 9.52121 13.8698 8.1172L9.63616 8.1172C8.46955 8.1172 7.48861 8.9121 7.2054 9.98982C8.56767 10.3561 9.57043 11.5998 9.57043 13.0777C9.57043 14.5557 8.56763 15.7994 7.20532 16.1657C7.48842 17.2436 8.46944 18.0386 9.63616 18.0386L13.8696 18.0386C14.2067 16.6342 15.4708 15.5904 16.9787 15.5904C18.7445 15.5904 20.176 17.0219 20.176 18.7877C20.176 20.5535 18.7445 21.985 16.9787 21.985C15.4715 21.985 14.2079 20.9421 13.87 19.5386L9.63616 19.5386C7.6495 19.5386 6.00001 18.095 5.67943 16.1996C4.24711 15.8828 3.17578 14.6054 3.17578 13.0777C3.17578 11.5501 4.24714 10.2727 5.67949 9.95586C6.00021 8.0606 7.64962 6.6172 9.63616 6.6172L13.8698 6.6172ZM16.9787 5.66992C16.0413 5.66992 15.2814 6.42984 15.2814 7.36725C15.2814 8.30466 16.0413 9.06457 16.9787 9.06457C17.9161 9.06457 18.676 8.30466 18.676 7.36725C18.676 6.42984 17.9161 5.66992 16.9787 5.66992ZM6.3731 11.3804C5.4357 11.3804 4.67578 12.1403 4.67578 13.0777C4.67578 14.0151 5.4357 14.7751 6.3731 14.7751C7.31051 14.7751 8.07043 14.0151 8.07043 13.0777C8.07043 12.1403 7.31051 11.3804 6.3731 11.3804ZM15.2814 18.7877C15.2814 17.8503 16.0413 17.0904 16.9787 17.0904C17.9161 17.0904 18.676 17.8503 18.676 18.7877C18.676 19.7251 17.9161 20.485 16.9787 20.485C16.0413 20.485 15.2814 19.7251 15.2814 18.7877Z" fill="#455564"/>
</svg>
