<svg width="32" height="32" viewBox="0 0 32 32" fill="none" xmlns="http://www.w3.org/2000/svg">
<path fill-rule="evenodd" clip-rule="evenodd" d="M25.6011 5.77115C26.5941 6.09802 27.2651 7.01455 27.2651 8.03437L27.3322 16.8846C27.3456 19.5649 26.366 22.1667 24.5677 24.2077C23.7491 25.149 22.689 25.9466 21.347 26.6657L16.583 29.2153C16.4354 29.2937 16.2743 29.3329 16.1133 29.3329C15.9522 29.3329 15.7778 29.2937 15.6302 29.2153L10.8259 26.7311C9.47049 26.025 8.41033 25.2406 7.57831 24.3123C5.75322 22.2988 4.73331 19.6969 4.71989 17.0166L4.66621 8.16381C4.65279 7.14399 5.32378 6.23007 6.30343 5.88883L15.1202 2.80452C15.6436 2.62017 16.2206 2.62017 16.7574 2.80452L25.6011 5.77115ZM19.2265 18.7819C19.6157 18.4027 19.6157 17.7751 19.2265 17.396L17.4148 15.6296L19.2265 13.8658C19.6157 13.4867 19.6157 12.8721 19.2265 12.4786C18.8373 12.0994 18.1932 12.0994 17.804 12.4786L15.9924 14.245L14.1807 12.4786C13.7915 12.0994 13.1608 12.0994 12.7582 12.4786C12.369 12.8721 12.369 13.4867 12.7582 13.8658L14.5699 15.6296L12.7582 17.396C12.369 17.7751 12.369 18.4027 12.7582 18.7819C12.9595 18.978 13.2145 19.0682 13.4694 19.0682C13.7378 19.0682 13.9928 18.978 14.1807 18.7819L15.9924 17.0168L17.804 18.7819C18.0053 18.978 18.2603 19.0682 18.5153 19.0682C18.7702 19.0682 19.0386 18.978 19.2265 18.7819Z" fill="#EA3434"/>
</svg>
