<svg width="17" height="18" viewBox="0 0 17 18" fill="none" xmlns="http://www.w3.org/2000/svg">
<path fill-rule="evenodd" clip-rule="evenodd" d="M8.82421 1.54799C9.20385 1.11411 9.75232 0.865234 10.3288 0.865234C11.7642 0.865234 12.7319 2.33284 12.1665 3.65212L10.8993 6.60884H12.1365H12.1712C12.8539 6.60882 13.4158 6.60881 13.8656 6.6488C14.328 6.68991 14.7618 6.77887 15.1476 7.016C15.728 7.37273 16.1553 7.9322 16.3467 8.58602C16.474 9.02061 16.4457 9.46249 16.3637 9.91947C16.2839 10.3638 16.1361 10.9059 15.9565 11.5644L15.9565 11.5645L15.9564 11.5646L15.9473 11.5981L15.2312 14.2238L15.196 14.3533L15.196 14.3533C15.0013 15.0699 14.8488 15.6311 14.5134 16.0654C14.2194 16.4461 13.8306 16.7431 13.3859 16.9266C12.8787 17.1359 12.2971 17.1353 11.5546 17.1346H11.5545L11.4204 17.1345H7.21834H7.18794C6.65377 17.1345 6.20791 17.1345 5.84367 17.1048C5.46379 17.0737 5.10713 17.0066 4.76987 16.8348C4.25242 16.5711 3.83173 16.1504 3.56807 15.633C3.39623 15.2957 3.32912 14.939 3.29808 14.5592C3.26832 14.1949 3.26833 13.7491 3.26834 13.2149L3.26834 13.1845V9.3817L3.26832 9.31599C3.26812 8.93494 3.26796 8.6349 3.33204 8.34237C3.38854 8.08446 3.48188 7.83603 3.6092 7.60473C3.7536 7.34238 3.9513 7.11668 4.20237 6.83005L4.24566 6.78061L8.82421 1.54799ZM1.55664 7.42926C1.97085 7.42926 2.30664 7.76505 2.30664 8.17926L2.30664 16.3844C2.30664 16.7986 1.97085 17.1344 1.55664 17.1344C1.14243 17.1344 0.806641 16.7986 0.806641 16.3844V8.17926C0.806641 7.76505 1.14243 7.42926 1.55664 7.42926Z" fill="#3C5BFF"/>
</svg>
