<svg width="22" height="18" viewBox="0 0 22 18" fill="none" xmlns="http://www.w3.org/2000/svg">
<path d="M20.0894 4.18176H17.6748L17.4265 1.85215C17.3814 1.43848 17.1783 1.04658 16.8398 0.785315C16.5013 0.524051 16.0725 0.393418 15.6437 0.436963L1.74258 1.87392C0.839908 1.96101 0.18547 2.7448 0.298304 3.59391L1.40408 13.7615C1.49435 14.567 2.19392 15.1766 3.02889 15.1766C3.09659 15.1766 3.14172 15.1766 3.20942 15.1766L4.5183 15.046V16.004C4.5183 16.8749 5.24044 17.5716 6.14311 17.5716H20.0894C20.9921 17.5716 21.7142 16.8749 21.7142 16.004V5.77112C21.7142 4.90023 20.9921 4.18176 20.0894 4.18176ZM4.49573 5.77112V13.7615L3.05146 13.9139C2.89349 13.9356 2.71295 13.805 2.71295 13.6526L1.60718 3.46328C1.60718 3.35442 1.65231 3.2891 1.67488 3.24556C1.69745 3.20201 1.76515 3.15847 1.87798 3.1367L15.7566 1.72151H15.7791C15.8694 1.72151 15.9371 1.76506 15.9822 1.78683C16.0274 1.8086 16.0725 1.87392 16.0951 1.98278L16.3433 4.18176H6.12054C5.21787 4.18176 4.49573 4.90023 4.49573 5.77112ZM20.3828 16.004C20.3828 16.1782 20.2474 16.3088 20.0668 16.3088H6.12054C5.94001 16.3088 5.80461 16.1782 5.80461 16.004V11.606L8.46749 9.03692C8.76086 8.75389 9.23476 8.75389 9.52813 9.03692L14.8765 14.1969C15.0119 14.3275 15.1698 14.3928 15.3504 14.3928C15.5309 14.3928 15.6889 14.3275 15.8243 14.1969C16.0725 13.9574 16.0725 13.5437 15.8243 13.3042L15.2375 12.7382L16.6141 11.4101C16.6592 11.3665 16.7495 11.3665 16.7946 11.4101L20.3828 14.8936V16.004ZM20.3828 13.0865L17.7199 10.5174C17.1557 9.97312 16.2305 9.97312 15.6663 10.5174L14.3123 11.8455L10.4759 8.14427C10.0923 7.77415 9.57327 7.55643 9.0091 7.55643C8.44493 7.55643 7.92589 7.77415 7.54225 8.14427L5.80461 9.79895V5.77112C5.80461 5.59694 5.94001 5.46631 6.12054 5.46631H20.0668C20.2474 5.46631 20.3828 5.59694 20.3828 5.77112V13.0865Z" fill="#16222C"/>
</svg>
