<svg width="199" height="178" viewBox="0 0 199 178" fill="none" xmlns="http://www.w3.org/2000/svg">
<path d="M154.552 -103.689C120.758 -112.287 87.634 -119.083 56.737 -98.1628C12.2411 -68.0355 -1.2986 -17.5266 1.30827 33.7512C2.31904 53.6331 7.00069 74.2895 22.0054 88.5854C41.4669 107.128 71.7102 106.631 96.501 103.534C115.935 101.106 134.304 95.4614 151.15 85.3974C170.829 73.6413 193.865 57.0094 201.334 34.1762C206.044 19.7743 204.75 3.21778 203.318 -11.5898C202.191 -23.2464 199.894 -34.7896 193.253 -44.6746C182.643 -60.4691 163.127 -65.5369 145.196 -66.4241C96.8189 -68.8178 68.6435 -20.6791 62.9745 22.1325C57.9748 59.8891 66.2645 109.543 114.292 106.438C149.189 104.183 181.601 78.8967 196.939 48.4161C202.23 37.9006 211.793 7.29689 195.947 -0.396258C174.433 -10.8405 148.592 7.46311 134.139 21.6366C114.43 40.9639 106.183 63.3922 107.346 90.8525C108.928 128.218 148.604 159.921 180.778 172.325C189.303 175.611 200.588 179.595 209.343 174.733C216.402 170.813 221.234 163.923 226 157.73" stroke="#EEECEC" stroke-opacity="0.5" stroke-linecap="round" stroke-linejoin="round"/>
</svg>
